# xmcd
#
# Track frame offsets: 
#        150
#        12272
#        22222
#        33962
#        43862
#        53510
#        64067
#        75397
#        84940
#        97100
#        107412
#        118510
#        130582
#        141270
#        152685
#        164652
#        174225
#        184925
#        195510
#        207022
#
# Disc length: 2900 seconds
#
# Revision: 3
# Processed by: cddbd v1.5.2PL0 Copyright (c) Steve Scherf et al.
# Submitted via: ExactAudioCopy v1.0b3
#
DISCID=fe0b5214
DTITLE=George Jones and Melba Montgomery - Vintage Collections (1963-64)
DYEAR=1995
DGENRE=Country
TTITLE0=We Must Have Been Out Of Our Minds
TTITLE1=I Dreamed My Baby Came Home
TTITLE2=Suppose Tonight Would Be Our Last
TTITLE3=Let's Invite Them Over
TTITLE4=Rollin' In My Sweet Baby's Arms
TTITLE5=Once More
TTITLE6=Flame In My Heart
TTITLE7=Dixieland For Me
TTITLE8=She's My Mother
TTITLE9=I Can't Get Over You
TTITLE10=Blue Moon Of Kentucky
TTITLE11=What's In Our Hearts
TTITLE12=Don't Go
TTITLE13=Please Be My Lover
TTITLE14=I Let You Go
TTITLE15=I'll Be There To Welcome You Home
TTITLE16=Multiply The Heartaches
TTITLE17=I'd Jump The Mississippi
TTITLE18=House Of Gold
TTITLE19=Wait A Little Longer
EXTD=
EXTT0=
EXTT1=
EXTT2=
EXTT3=
EXTT4=
EXTT5=
EXTT6=
EXTT7=
EXTT8=
EXTT9=
EXTT10=
EXTT11=
EXTT12=
EXTT13=
EXTT14=
EXTT15=
EXTT16=
EXTT17=
EXTT18=
EXTT19=
PLAYORDER=
